#!OML:ASF E:\Style4\Style4.ASF
:FULLY-SPECIFIED
:DEGREES
4018
root -0.140195 16.9932 -1.30457 2.6305 -3.17788 8.28868
lowerback 14.5216 3.08312 -0.311375
upperback 5.53601 3.92065 -2.62554
thorax -2.10837 1.97218 -3.19502
lowerneck 6.31685 -12.4792 -8.39509
upperneck -0.0090686 -17.1156 10.2204
head 0.59869 -8.69902 4.33739
rclavicle 5.00937e-014 -2.54444e-014
rhumerus 62.2208 -25.9257 -38.9727
rradius 51.4643
rwrist -1.74985
rhand 18.0189 6.62213
rfingers 7.12502
rthumb 42.6853 -17.7341
lclavicle 5.00937e-014 -2.54444e-014
lhumerus 70.7589 21.4166 29.3851
lradius 74.1097
lwrist 25.4698
lhand 17.4946 30.8361
lfingers 7.12502
lthumb 42.1944 55.3606
rfemur -31.2026 -0.19945 10.4052
rtibia 54.4424
rfoot -23.7499 -16.0643
rtoes -14.6343
lfemur -25.9938 6.85593 -26.5295
ltibia 45.7377
lfoot -21.7313 6.70716
ltoes -18.611
4019
root -0.135785 16.9716 -1.30402 2.51702 -3.35624 8.35768
lowerback 14.5478 3.1608 -0.265318
upperback 5.60432 4.02819 -2.67338
thorax -2.03789 2.02798 -3.28666
lowerneck 6.36566 -12.5089 -8.25065
upperneck -0.0630616 -17.1437 10.1849
head 0.562457 -8.7141 4.31309
rclavicle 6.32135e-014 -1.59028e-015
rhumerus 62.1437 -25.9749 -38.9689
rradius 51.4346
rwrist -1.69231
rhand 17.9756 6.69103
rfingers 7.12502
rthumb 42.6447 -17.6793
lclavicle 6.32135e-014 -1.59028e-015
lhumerus 70.7301 21.4832 29.2604
lradius 74.3113
lwrist 25.4245
lhand 16.9909 31.2644
lfingers 7.12502
lthumb 41.7222 55.9468
rfemur -31.3508 -0.241271 10.3115
rtibia 54.8381
rfoot -23.8423 -15.8537
rtoes -14.7289
lfemur -26.0856 6.95461 -26.6144
ltibia 46.1471
lfoot -21.7352 6.92088
ltoes -19.8722
4020
root -0.132719 16.9509 -1.30397 2.42932 -3.53863 8.423
lowerback 14.5637 3.21829 -0.260008
upperback 5.62633 4.10284 -2.72084
thorax -2.015 2.0661 -3.35112
lowerneck 6.45555 -12.4962 -8.11169
upperneck -0.100706 -17.1188 10.1558
head 0.520646 -8.70364 4.29574
rclavicle -5.00937e-014 1.19271e-014
rhumerus 62.0179 -25.9213 -38.9551
rradius 51.475
rwrist -1.68547
rhand 17.9244 6.74036
rfingers 7.12502
rthumb 42.5969 -17.6465
lclavicle -5.00937e-014 1.19271e-014
lhumerus 70.5931 21.5488 29.0621
lradius 74.5007
lwrist 25.4537
lhand 16.8006 31.4621
lfingers 7.12502
lthumb 41.5438 56.2032
rfemur -31.5332 -0.236214 10.2241
rtibia 55.1548
rfoot -23.8755 -15.8728
rtoes -15.4334
lfemur -26.1977 7.04631 -26.6899
ltibia 46.5268
lfoot -21.7439 7.07935
ltoes -20.4509
4021
root -0.126747 16.9312 -1.3044 2.30394 -3.73679 8.47707
lowerback 14.6226 3.23933 -0.255008
upperback 5.6503 4.12914 -2.74295
thorax -2.01755 2.07946 -3.38419
lowerneck 6.54549 -12.4453 -8.05826
upperneck -0.11221 -17.0504 10.1513
head 0.491872 -8.67159 4.29702
rclavicle -4.94974e-014 1.11319e-014
rhumerus 61.9443 -25.7691 -38.926
rradius 51.5564
rwrist -1.71011
rhand 17.8248 6.84768
rfingers 7.12502
rthumb 42.5036 -17.5714
lclavicle -4.94974e-014 1.11319e-014
lhumerus 70.3496 21.6864 28.7926
lradius 74.7121
lwrist 25.5669
lhand 17.2547 31.2946
lfingers 7.12502
lthumb 41.9696 55.8949
rfemur -31.6375 -0.2304 10.1395
rtibia 55.4172
rfoot -23.9363 -15.6705
rtoes -15.4529
lfemur -26.2638 7.17973 -26.7572
ltibia 46.8852
lfoot -21.8899 7.11502
ltoes -20.2995
4022
root -0.120575 16.9142 -1.30382 2.1294 -3.95413 8.44138
lowerback 14.7296 3.23413 -0.216853
upperback 5.67602 4.12611 -2.70212
thorax -2.04809 2.07737 -3.36849
lowerneck 6.67046 -12.3672 -8.10146
upperneck -0.1705 -16.9525 10.1486
head 0.449186 -8.62602 4.31707
rclavicle -4.79071e-014 2.22639e-014
rhumerus 61.904 -25.5174 -38.9133
rradius 51.6343
rwrist -1.70001
rhand 17.7174 7.01142
rfingers 7.12502
rthumb 42.4031 -17.4421
lclavicle -4.79071e-014 2.22639e-014
lhumerus 70.0465 21.856 28.4724
lradius 74.8398
lwrist 25.6657
lhand 17.7366 30.8674
lfingers 7.12502
lthumb 42.421 55.3148
rfemur -31.6425 -0.168585 10.1628
rtibia 55.6272
rfoot -23.9715 -15.5065
rtoes -15.3145
lfemur -26.2396 7.31986 -26.7102
ltibia 47.2202
lfoot -22.1306 7.13012
ltoes -20.1257
4023
root -0.116416 16.8999 -1.30082 1.96028 -4.20502 8.324
lowerback 14.8036 3.23932 -0.112581
upperback 5.71679 4.14707 -2.65826
thorax -2.03933 2.08853 -3.38754
lowerneck 6.72256 -12.2996 -8.04573
upperneck -0.214093 -16.858 10.0991
head 0.410427 -8.57968 4.30462
rclavicle -2.08724e-014 2.38542e-015
rhumerus 61.766 -25.2968 -38.8467
rradius 51.7239
rwrist -1.79692
rhand 17.6606 7.0188
rfingers 7.12502
rthumb 42.3499 -17.4529
lclavicle -2.08724e-014 2.38542e-015
lhumerus 69.804 22.0047 28.0997
lradius 74.9629
lwrist 25.773
lhand 17.8102 30.6887
lfingers 7.12502
lthumb 42.49 55.1124
rfemur -31.6137 -0.0363752 10.2881
rtibia 55.8
rfoot -24.0185 -15.4828
rtoes -15.5322
lfemur -26.1876 7.46297 -26.5574
ltibia 47.5245
lfoot -22.3667 7.12854
ltoes -19.6214
4024
root -0.108768 16.8882 -1.2951 1.83371 -4.5076 8.26919
lowerback 14.7724 3.28738 -0.0178264
upperback 5.78299 4.22431 -2.66714
thorax -1.94089 2.12975 -3.45704
lowerneck 6.63623 -12.2692 -7.94913
upperneck -0.0824719 -16.8124 9.69051
head 0.463612 -8.5519 4.62568
rclavicle -7.65321e-014 3.97569e-014
rhumerus 61.6031 -25.1737 -38.7371
rradius 51.8752
rwrist -1.94435
rhand 17.6989 6.98276
rfingers 7.12502
rthumb 42.3857 -17.4767
lclavicle -7.65321e-014 3.97569e-014
lhumerus 69.7254 22.0942 27.8293
lradius 75.0883
lwrist 25.812
lhand 17.5856 30.7157
lfingers 7.12502
lthumb 42.2796 55.2114
rfemur -31.6033 0.0408333 10.3341
rtibia 55.9446
rfoot -24.0667 -15.3752
rtoes -15.909
lfemur -26.141 7.58526 -26.4954
ltibia 47.7904
lfoot -22.5455 7.09931
ltoes -18.9701
4025
root -0.101051 16.8808 -1.28998 1.71949 -4.83536 8.30492
lowerback 14.7231 3.33769 -0.0697252
upperback 5.83393 4.28426 -2.67472
thorax -1.86068 2.16009 -3.43954
lowerneck 6.59705 -12.2217 -7.81938
upperneck -0.0464548 -16.7385 9.61448
head 0.455466 -8.51248 4.5761
rclavicle 1.78906e-015 -2.54444e-014
rhumerus 61.4979 -25.0216 -38.629
rradius 52.077
rwrist -2.00385
rhand 17.748 7.05685
rfingers 7.12502
rthumb 42.4317 -17.3869
lclavicle 1.78906e-015 -2.54444e-014
lhumerus 69.611 22.1948 27.6233
lradius 75.2259
lwrist 25.8262
lhand 17.5214 30.7674
lfingers 7.12502
lthumb 42.2194 55.2835
rfemur -31.5939 0.131126 10.2722
rtibia 56.0618
rfoot -24.1969 -15.058
rtoes -15.5266
lfemur -26.0991 7.70809 -26.5444
ltibia 48.0186
lfoot -22.6907 7.18832
ltoes -18.83
